<?xml version="1.0" standalone="no"?>
<!DOCTYPE svg PUBLIC "-//W3C//DTD SVG 20010904//EN"
 "http://www.w3.org/TR/2001/REC-SVG-20010904/DTD/svg10.dtd">
<svg version="1.0" xmlns="http://www.w3.org/2000/svg"
 width="600.000000pt" height="146.000000pt" viewBox="0 0 600.000000 146.000000"
 preserveAspectRatio="xMidYMid meet">

<g transform="translate(0.000000,146.000000) scale(0.100000,-0.100000)"
fill="#000000" stroke="none">
<path d="M899 1310 c-138 -22 -325 -82 -447 -144 -36 -18 -50 -30 -46 -41 8
-20 11 -20 100 21 220 100 446 148 594 125 131 -21 235 -90 289 -193 l24 -44
116 0 c86 1 125 -3 152 -15 40 -19 105 -73 120 -101 10 -18 7 -18 -40 -12 -47
6 -51 5 -51 -13 0 -15 9 -22 31 -27 45 -9 139 -7 139 2 0 5 -17 33 -38 62 -77
111 -171 155 -317 148 l-83 -3 -42 62 c-47 71 -132 134 -214 158 -63 19 -212
27 -287 15z"/>
<path d="M907 1188 c-37 -8 -47 -14 -43 -27 3 -9 12 -44 22 -78 9 -37 22 -63
30 -63 23 0 25 18 10 70 -19 63 -16 65 104 65 64 0 95 -5 123 -19 43 -21 113
-83 105 -92 -3 -3 -50 -10 -104 -15 -202 -20 -494 -102 -689 -193 -73 -34 -94
-48 -89 -60 8 -22 10 -21 109 24 117 54 326 123 465 154 124 27 338 51 370 41
30 -10 24 7 -24 72 -50 64 -89 94 -155 118 -49 17 -159 18 -234 3z"/>
<path d="M2216 983 c7 -27 25 -82 37 -123 l24 -75 -88 -140 c-85 -136 -87
-140 -63 -143 14 -2 32 -1 39 1 7 3 40 49 73 103 38 60 63 92 67 83 3 -8 18
-52 33 -99 l27 -85 38 -3 c25 -2 37 1 37 10 0 7 -18 70 -39 141 l-39 127 79
125 78 125 -37 0 c-36 0 -39 -3 -87 -80 -47 -75 -65 -94 -65 -69 0 6 -9 42
-21 80 l-21 69 -43 0 -44 0 15 -47z"/>
<path d="M2735 1018 c-5 -15 -85 -491 -85 -507 0 -7 45 -11 134 -11 142 0 146
1 146 51 0 17 -8 19 -95 19 -109 0 -103 -8 -84 111 l12 69 88 0 c49 0 89 3 89
8 0 4 3 17 6 30 6 22 5 22 -81 22 l-88 0 7 61 c11 93 5 89 117 89 72 0 99 3
99 13 0 6 3 22 6 35 l6 22 -136 0 c-100 0 -138 -3 -141 -12z"/>
<path d="M3278 1009 c-70 -37 -101 -147 -57 -203 11 -14 51 -46 89 -71 77 -49
91 -75 66 -123 -17 -34 -33 -42 -81 -42 -39 0 -65 29 -65 72 0 25 -4 28 -34
28 -28 0 -34 -4 -39 -26 -7 -37 8 -94 32 -118 15 -15 37 -21 83 -24 114 -7
188 56 188 160 0 55 -28 94 -96 134 -47 28 -94 77 -94 99 0 8 10 26 23 41 19
21 32 27 67 27 49 0 70 -19 70 -65 0 -25 3 -28 34 -28 28 0 35 4 38 23 6 40
-10 91 -37 115 -35 30 -132 30 -187 1z"/>
<path d="M3745 1008 c-3 -13 -21 -120 -40 -238 -19 -118 -38 -228 -41 -243 -6
-28 -5 -28 33 -25 l38 3 19 113 19 112 94 0 c108 0 101 10 78 -120 -20 -113
-21 -110 20 -110 41 0 33 -25 80 260 19 118 38 228 41 243 6 28 5 28 -33 25
l-38 -3 -19 -112 -19 -113 -94 0 c-108 0 -101 -10 -78 120 20 113 21 110 -20
110 -28 0 -36 -4 -40 -22z"/>
<path d="M4326 783 c-60 -136 -111 -256 -114 -266 -4 -16 1 -18 29 -15 30 3
37 9 62 61 l28 57 79 0 79 0 5 -32 c3 -18 7 -44 8 -58 3 -21 9 -25 41 -28 l37
-3 -6 53 c-3 29 -16 147 -28 263 l-21 210 -46 3 -45 3 -108 -248z m149 -5 l7
-98 -55 0 c-31 0 -58 4 -61 8 -2 4 16 54 41 111 29 65 49 98 54 89 4 -7 10
-57 14 -110z"/>
<path d="M4865 1008 c-3 -13 -21 -120 -40 -238 -19 -118 -38 -228 -41 -243 -6
-28 -5 -28 32 -25 l38 3 18 104 c9 57 21 108 26 113 6 6 20 8 33 6 25 -3 30
-16 74 -170 16 -58 16 -58 56 -58 21 0 39 3 39 8 0 4 -14 52 -30 107 -16 55
-30 105 -30 112 0 6 16 20 35 32 45 26 74 88 75 157 0 85 -49 114 -197 114
-77 0 -83 -1 -88 -22z m178 -57 c32 -13 41 -42 27 -87 -14 -42 -56 -64 -121
-64 l-42 0 7 57 c12 102 13 103 61 103 24 0 55 -4 68 -9z"/>
<path d="M5390 1024 c0 -3 -18 -113 -40 -244 -22 -131 -40 -248 -40 -259 0
-20 5 -21 135 -21 101 0 135 3 135 13 0 6 3 22 6 35 6 22 5 22 -95 22 -55 0
-101 1 -101 3 0 1 7 40 15 87 8 47 15 86 15 88 0 1 41 2 90 2 71 0 90 3 90 14
0 8 3 21 6 30 5 14 -6 16 -79 16 -47 0 -88 3 -90 8 -2 4 0 37 6 75 l10 67 103
0 102 0 4 35 4 35 -138 0 c-76 0 -138 -3 -138 -6z"/>
<path d="M1450 900 c0 -16 6 -20 38 -20 20 0 54 -3 75 -7 37 -6 39 -5 35 18
-3 22 -8 24 -75 27 -68 3 -73 1 -73 -18z"/>
<path d="M1176 894 c-44 -8 -82 -16 -84 -19 -3 -2 -2 -12 2 -21 5 -12 14 -15
34 -11 15 4 66 11 115 18 74 10 87 14 87 30 0 23 -38 24 -154 3z"/>
<path d="M910 824 c-25 -9 -82 -33 -127 -54 -63 -30 -81 -42 -77 -54 8 -20 17
-20 62 3 33 16 109 48 194 80 19 7 26 15 22 26 -7 18 -17 18 -74 -1z"/>
<path d="M1505 754 c-386 -45 -721 -183 -1045 -431 -152 -116 -165 -129 -150
-148 14 -17 14 -17 104 59 42 35 48 37 64 24 55 -49 151 -64 210 -34 43 22 90
81 98 121 6 36 2 84 -11 118 -6 14 13 27 116 76 104 50 292 122 317 121 4 0
15 -18 25 -40 47 -101 199 -113 269 -20 10 14 22 45 26 70 l8 45 169 0 c148 0
170 2 173 16 2 13 -10 17 -59 23 -62 6 -258 6 -314 0z m-15 -66 c0 -30 -33
-84 -61 -99 -31 -16 -93 -13 -122 5 -30 20 -54 63 -41 75 9 9 157 38 202 40
16 1 22 -5 22 -21z m-744 -273 c9 -51 -2 -84 -45 -127 -34 -34 -44 -38 -87
-38 -46 0 -114 28 -114 47 1 9 20 24 131 98 45 30 88 55 95 55 7 0 16 -16 20
-35z"/>
<path d="M507 620 c-141 -90 -227 -158 -221 -175 4 -8 10 -15 14 -15 5 0 58
36 119 79 61 44 129 90 151 102 38 21 49 48 25 56 -5 1 -45 -19 -88 -47z"/>
</g>
</svg>
