<?xml version="1.0" standalone="no"?>
<!DOCTYPE svg PUBLIC "-//W3C//DTD SVG 20010904//EN"
 "http://www.w3.org/TR/2001/REC-SVG-20010904/DTD/svg10.dtd">
<svg version="1.0" xmlns="http://www.w3.org/2000/svg"
 width="600.000000pt" height="480.000000pt" viewBox="0 0 600.000000 480.000000"
 preserveAspectRatio="xMidYMid meet">

<g transform="translate(0.000000,480.000000) scale(0.100000,-0.100000)"
fill="#000000" stroke="none">
<path d="M2610 4667 c-3 -3 -39 -8 -80 -11 -98 -7 -262 -29 -275 -38 -6 -3
-39 -9 -74 -12 -35 -3 -68 -10 -75 -14 -6 -5 -18 -10 -26 -10 -42 -2 -95 -14
-108 -25 -8 -6 -17 -11 -19 -9 -6 5 -78 -10 -89 -19 -5 -5 -26 -10 -45 -13
-19 -2 -47 -10 -64 -16 -16 -7 -40 -14 -51 -16 -12 -2 -35 -11 -50 -19 -16 -8
-38 -15 -49 -15 -12 0 -25 -4 -30 -9 -11 -11 -59 -23 -88 -22 -10 0 -21 -7
-24 -15 -3 -8 -13 -14 -23 -14 -11 0 -22 -4 -25 -10 -3 -5 -16 -10 -29 -10
-12 0 -31 -7 -42 -15 -10 -8 -27 -15 -37 -15 -10 0 -52 -16 -94 -35 -42 -19
-84 -35 -93 -35 -10 0 -23 -6 -29 -14 -7 -8 -26 -18 -42 -21 -16 -4 -29 -10
-29 -13 0 -4 -29 -18 -65 -31 -36 -14 -65 -28 -65 -32 0 -4 -14 -10 -30 -14
-17 -4 -30 -10 -30 -15 0 -5 -14 -11 -30 -15 -17 -4 -30 -10 -30 -15 0 -5 -14
-11 -30 -15 -17 -4 -30 -10 -30 -14 0 -6 -55 -33 -75 -36 -14 -2 -57 -26 -72
-41 -19 -18 -16 -31 20 -104 31 -62 33 -65 66 -62 18 1 46 11 61 22 16 11 33
20 38 20 6 0 12 3 14 8 3 6 53 31 273 137 39 19 91 41 118 51 26 9 47 20 47
24 0 7 67 30 84 29 5 0 12 4 15 10 4 5 19 12 35 15 16 3 34 10 40 16 5 5 20
10 32 10 12 0 24 5 26 10 2 6 14 12 27 15 12 2 29 9 37 16 8 6 21 8 31 5 9 -4
19 -2 23 4 4 6 17 13 30 15 13 2 27 10 32 17 6 10 8 10 8 -1 0 -11 4 -11 18 2
10 10 28 17 40 17 12 0 22 4 22 8 0 5 6 9 13 10 47 5 71 12 77 22 4 6 10 11
14 10 13 -3 71 13 84 22 8 7 12 7 12 -1 0 -8 7 -7 22 3 12 9 35 16 50 16 16 0
28 4 28 9 0 5 24 12 53 16 28 4 57 11 62 15 6 4 17 8 25 8 13 0 63 10 150 28
29 6 131 22 205 32 65 8 526 9 585 0 38 -6 84 -14 167 -32 7 -1 16 -5 19 -9 4
-4 20 -7 35 -7 15 0 34 -7 43 -15 8 -9 19 -14 23 -13 18 5 82 -14 93 -27 7 -8
21 -15 30 -15 20 0 83 -30 88 -42 2 -5 10 -8 17 -8 7 0 27 -11 43 -25 16 -13
32 -22 36 -18 3 3 6 1 6 -6 0 -6 11 -16 26 -21 14 -6 44 -25 67 -42 47 -37
207 -198 207 -208 0 -4 11 -19 25 -34 14 -15 25 -32 25 -37 0 -6 6 -17 13 -24
29 -33 37 -45 37 -54 0 -5 3 -11 8 -13 7 -3 77 -143 106 -213 10 -22 21 -48
26 -57 6 -10 10 -25 10 -33 0 -17 45 -21 55 -4 4 5 17 9 28 8 12 -1 43 1 69 5
186 31 551 40 583 15 6 -4 24 -7 41 -7 16 1 39 -4 49 -9 11 -6 26 -8 33 -6 6
3 12 -1 12 -7 0 -7 8 -10 20 -7 11 3 23 1 26 -4 3 -5 14 -9 24 -9 10 0 20 -5
22 -10 2 -6 12 -12 23 -14 30 -6 105 -47 105 -57 0 -5 7 -9 15 -9 24 0 74 -38
155 -120 74 -75 96 -100 135 -154 11 -16 26 -34 33 -41 25 -27 -20 -31 -215
-20 l-133 8 0 -97 0 -97 43 2 c69 3 318 -11 377 -21 30 -5 99 -11 153 -13 83
-2 97 -1 97 13 0 18 -100 218 -130 260 -11 15 -20 33 -20 38 0 6 -3 12 -7 14
-5 2 -24 26 -43 53 -52 74 -58 82 -142 169 -43 44 -78 84 -78 88 0 4 -5 8 -11
8 -6 0 -29 16 -50 35 -22 19 -44 35 -50 35 -7 0 -22 11 -35 25 -14 15 -29 22
-38 19 -9 -3 -16 -2 -16 4 0 6 -13 13 -30 17 -16 4 -36 15 -42 24 -11 15 -44
27 -95 33 -7 1 -13 5 -13 9 0 4 -8 6 -17 4 -10 -1 -29 3 -43 10 -14 6 -33 10
-42 8 -10 -3 -18 0 -18 5 0 13 -31 14 -305 14 -252 1 -350 -3 -361 -15 -24
-24 -44 -2 -99 108 -32 63 -62 115 -66 115 -5 0 -9 6 -9 14 0 8 -6 21 -12 28
-7 7 -26 33 -43 58 -36 54 -30 47 -135 163 -47 52 -96 101 -110 110 -14 8 -39
28 -56 44 -31 28 -146 103 -158 103 -4 0 -23 11 -44 24 -20 12 -48 27 -62 31
-14 4 -32 13 -40 20 -14 12 -78 36 -109 41 -8 2 -17 7 -20 12 -3 5 -13 9 -21
10 -43 3 -106 14 -115 21 -12 9 -89 23 -124 22 -13 -1 -29 3 -36 9 -7 6 -23
10 -36 10 -13 0 -127 3 -254 6 -126 3 -232 4 -235 1z"/>
<path d="M2645 4208 c-17 -5 -43 -9 -60 -9 -16 0 -39 -4 -50 -9 -11 -5 -38
-12 -60 -16 -22 -4 -44 -8 -50 -9 -5 -1 -13 -3 -17 -5 -12 -4 -20 -6 -63 -15
-22 -4 -46 -12 -52 -18 -9 -6 -13 -6 -13 2 0 8 -6 7 -16 -3 -8 -9 -20 -16 -25
-16 -12 0 -12 -77 0 -84 5 -4 12 -30 16 -59 4 -28 12 -57 17 -64 5 -6 8 -17 7
-25 -1 -7 0 -20 4 -28 5 -13 8 -28 21 -90 2 -8 6 -22 9 -30 6 -17 17 -66 21
-95 1 -11 5 -27 8 -35 12 -28 21 -75 19 -91 -1 -9 9 -23 22 -32 20 -13 28 -14
43 -3 20 14 69 29 94 31 16 0 22 60 9 80 -8 12 -23 87 -20 99 1 4 -3 13 -8 20
-5 6 -12 34 -16 61 -4 28 -11 55 -15 60 -5 6 -11 33 -15 60 -4 28 -12 55 -17
62 -5 7 -7 16 -4 21 7 11 64 25 89 23 10 -2 25 3 32 9 8 7 20 10 27 7 7 -2 24
0 37 5 73 27 333 28 444 2 18 -4 34 -8 37 -9 3 0 10 -4 17 -8 6 -4 18 -4 26
-1 8 3 18 1 22 -5 3 -6 15 -11 26 -11 10 0 19 -5 19 -11 0 -6 6 -9 13 -6 6 2
25 -7 40 -19 16 -13 35 -24 43 -24 8 0 14 -5 14 -11 0 -6 9 -8 20 -4 11 4 20
2 20 -4 0 -6 5 -11 11 -11 18 0 133 -94 183 -149 17 -19 45 -50 63 -69 18 -19
35 -43 38 -53 4 -11 11 -19 16 -19 5 0 9 -4 9 -9 0 -5 -26 -12 -57 -15 -55 -5
-256 -23 -353 -31 -25 -2 -79 -9 -120 -15 -41 -6 -88 -13 -105 -15 -16 -2 -55
-9 -85 -15 -30 -7 -66 -11 -79 -11 -13 1 -29 -3 -35 -8 -6 -5 -40 -12 -75 -15
-35 -3 -70 -11 -77 -17 -8 -7 -17 -9 -20 -6 -3 3 -20 0 -37 -8 -18 -7 -38 -10
-45 -8 -7 3 -20 1 -30 -3 -17 -8 -24 -9 -79 -20 -18 -3 -33 -10 -33 -14 0 -4
-19 -10 -42 -14 -24 -4 -50 -8 -58 -10 -8 -1 -32 -8 -53 -15 -21 -7 -41 -10
-44 -7 -4 3 -16 -1 -29 -9 -12 -8 -32 -12 -43 -10 -12 2 -21 0 -21 -6 0 -5 -7
-9 -15 -9 -8 0 -23 -4 -33 -9 -15 -9 -48 -18 -77 -21 -5 -1 -15 -6 -21 -11 -7
-5 -28 -11 -48 -13 -19 -2 -42 -9 -50 -15 -11 -9 -15 -9 -18 0 -3 8 -9 6 -21
-5 -9 -10 -21 -15 -26 -12 -5 3 -14 -1 -21 -9 -7 -8 -28 -17 -49 -21 -20 -4
-40 -9 -46 -13 -5 -3 -14 -6 -20 -6 -5 -1 -18 -4 -27 -8 -44 -17 -54 -20 -62
-18 -5 1 -12 -2 -15 -7 -3 -6 -21 -12 -40 -15 -19 -3 -37 -11 -41 -18 -4 -6
-12 -9 -18 -5 -5 3 -15 -1 -22 -9 -6 -7 -18 -11 -26 -8 -8 3 -14 0 -14 -6 0
-6 -3 -10 -7 -10 -17 3 -73 -14 -73 -22 0 -5 -8 -9 -17 -9 -10 0 -31 -7 -47
-15 -15 -8 -40 -17 -54 -20 -14 -2 -28 -9 -31 -14 -4 -5 -20 -13 -36 -17 -17
-4 -33 -12 -37 -18 -5 -7 -8 -6 -8 4 0 10 -5 7 -15 -7 -9 -13 -22 -20 -30 -17
-8 4 -15 1 -15 -5 0 -6 -3 -10 -8 -10 -4 1 -23 -4 -42 -12 -19 -7 -38 -12 -42
-11 -5 1 -8 -2 -8 -8 0 -5 -7 -10 -15 -10 -8 0 -15 -5 -15 -10 0 -6 -3 -9 -7
-9 -5 1 -10 0 -13 -1 -3 -1 -14 -3 -24 -5 -29 -5 -116 -49 -116 -57 0 -5 -7
-8 -15 -8 -8 0 -15 -4 -15 -9 0 -5 -14 -12 -30 -16 -17 -4 -30 -10 -30 -15 0
-4 -14 -10 -31 -14 -17 -3 -44 -15 -60 -27 -16 -11 -29 -17 -29 -12 0 4 -7 -1
-15 -11 -8 -11 -15 -16 -15 -12 0 4 -12 -1 -27 -11 -16 -11 -40 -24 -56 -31
-35 -15 -34 -31 6 -113 33 -70 54 -90 72 -67 5 7 48 32 95 56 95 48 122 63
131 75 3 5 9 9 12 9 19 0 47 12 47 19 0 5 3 8 8 7 4 -1 25 6 46 15 22 10 50
20 63 23 13 4 23 10 23 16 0 5 5 6 10 3 6 -3 10 -1 10 4 0 6 7 11 15 11 8 0
15 4 15 10 0 5 7 7 15 4 8 -4 15 -1 15 5 0 6 3 10 8 10 20 -3 42 2 54 14 16
16 50 31 62 28 5 -1 13 4 17 11 7 10 9 10 9 -2 0 -10 5 -7 15 7 9 13 22 20 30
17 8 -4 15 -1 15 6 0 6 4 9 9 5 5 -3 16 2 25 10 8 8 30 18 48 21 18 4 43 13
56 20 12 8 22 11 22 8 0 -4 8 0 18 9 10 10 21 14 24 11 4 -3 20 2 37 10 16 9
41 16 55 16 13 0 26 5 28 10 2 6 14 12 27 15 14 2 28 9 31 15 4 6 11 10 16 9
9 -2 24 3 69 21 46 19 61 23 73 21 6 -1 12 2 12 7 0 6 20 13 45 16 24 4 47 11
50 16 3 4 23 11 45 15 22 4 42 11 46 16 3 5 10 7 15 3 5 -3 15 -2 22 3 16 13
114 42 156 48 19 2 37 8 40 14 3 5 28 11 54 14 26 3 54 10 62 17 8 6 18 9 23
6 6 -3 15 1 22 9 8 9 22 12 41 8 17 -3 29 -1 29 5 0 10 49 23 89 22 13 0 30 5
37 11 8 6 14 8 14 5 0 -4 10 -1 22 5 12 7 37 12 55 11 18 -1 33 3 33 9 0 6 8
9 18 8 9 -1 29 1 44 5 15 5 40 9 55 11 15 2 48 9 73 15 25 7 58 12 75 12 16
-1 34 3 40 7 5 5 39 12 75 16 36 5 76 9 90 11 14 2 50 5 80 8 30 2 66 7 80 10
48 12 157 17 404 21 137 3 251 6 253 9 3 3 -9 28 -26 56 -17 28 -31 53 -31 56
0 8 -102 178 -110 184 -4 3 -13 15 -19 28 -16 30 -23 38 -136 155 -52 53 -95
102 -95 107 0 6 -7 10 -14 10 -8 0 -27 11 -42 25 -15 14 -33 25 -40 25 -7 0
-25 13 -40 29 -15 16 -33 27 -41 24 -7 -3 -13 0 -13 7 0 6 -6 10 -12 7 -7 -2
-21 5 -30 15 -9 11 -19 19 -22 18 -12 -3 -71 13 -82 22 -7 5 -16 8 -20 6 -5
-1 -19 3 -30 10 -12 6 -24 9 -27 5 -4 -3 -13 0 -22 7 -8 7 -23 10 -34 7 -10
-2 -27 0 -37 6 -23 13 -386 17 -429 5z"/>
<path d="M4382 3020 l3 -94 51 -3 c121 -7 484 -9 495 -3 8 5 9 33 4 94 l-7 86
-252 0 c-138 0 -261 3 -274 6 -23 7 -23 6 -20 -86z"/>
<path d="M3848 3085 c-6 -7 -48 -12 -228 -30 -19 -2 -64 -9 -100 -15 -36 -7
-76 -12 -89 -11 -13 1 -29 -3 -35 -8 -6 -5 -39 -12 -74 -15 -35 -3 -67 -8 -72
-11 -6 -3 -20 -8 -32 -11 -13 -3 -43 -9 -68 -15 -25 -5 -54 -11 -65 -13 -17
-2 -20 -10 -19 -47 4 -90 19 -149 40 -149 8 0 22 4 32 9 23 13 74 25 91 22 8
-2 24 2 35 7 25 12 95 26 114 23 8 -1 20 3 27 9 8 6 22 10 32 9 10 -2 34 1 53
6 19 4 49 9 65 11 49 6 87 11 139 19 27 4 67 9 90 11 22 1 68 6 101 9 l60 7 0
72 c0 39 -5 79 -11 89 -11 18 -74 34 -86 22z"/>
<path d="M2600 2809 c0 -6 -6 -9 -14 -6 -8 3 -17 3 -21 -1 -4 -4 -10 -7 -13
-8 -39 -6 -72 -18 -72 -25 0 -5 -9 -9 -19 -9 -11 0 -23 -5 -26 -11 -4 -6 -13
-8 -21 -5 -8 3 -14 0 -14 -6 0 -6 -3 -8 -7 -5 -3 4 -17 0 -30 -8 -13 -9 -23
-13 -23 -9 0 4 -7 1 -15 -6 -12 -10 -15 -10 -15 0 0 7 -9 2 -20 -11 -10 -13
-19 -20 -20 -15 0 5 -6 4 -13 -2 -7 -6 -26 -13 -42 -16 -17 -3 -31 -10 -33
-16 -2 -5 -9 -10 -15 -10 -7 0 -25 -7 -42 -16 -16 -9 -39 -18 -49 -20 -11 -2
-22 -7 -25 -12 -7 -10 -43 -26 -53 -24 -5 1 -8 -2 -8 -7 0 -5 -13 -12 -30 -16
-16 -4 -30 -11 -30 -16 0 -5 -5 -9 -11 -9 -14 0 -102 -42 -109 -52 -3 -3 -18
-10 -33 -13 -15 -4 -27 -11 -27 -17 0 -5 -9 -6 -20 -3 -11 4 -20 2 -20 -4 0
-6 -7 -11 -15 -11 -9 0 -18 -7 -21 -15 -4 -8 -10 -13 -14 -10 -15 9 -23 -16
-12 -38 6 -12 22 -48 37 -81 26 -56 28 -58 58 -52 18 3 37 12 42 19 6 6 28 21
50 32 22 11 43 24 46 28 3 5 10 9 15 9 23 2 44 11 44 19 0 5 3 9 8 8 14 -2 52
14 52 22 0 5 7 6 15 3 8 -4 15 -2 15 4 0 6 14 13 30 17 17 4 30 11 30 16 0 5
3 8 8 8 4 -1 9 0 12 1 3 1 14 3 25 5 11 2 21 9 23 14 2 6 10 11 18 11 8 0 14
5 14 11 0 6 6 9 14 6 8 -3 16 -2 18 3 2 5 16 11 32 14 16 3 32 10 36 16 4 6
20 12 35 14 16 2 31 8 33 15 2 6 11 11 20 11 10 1 35 9 57 20 22 11 48 19 58
20 9 0 17 5 17 11 0 6 6 9 14 6 8 -3 20 0 26 8 6 8 18 11 26 8 8 -3 14 0 14 5
0 6 9 9 20 7 11 -2 20 1 20 7 0 5 7 8 15 4 8 -3 21 2 30 10 11 11 15 12 15 3
0 -9 5 -8 17 4 13 13 15 20 5 29 -7 7 -12 22 -12 34 0 13 -4 25 -9 28 -4 3
-11 24 -15 46 -6 38 -8 40 -41 40 -19 0 -35 -5 -35 -11z"/>
<path d="M4874 2490 c-3 -2 -69 -8 -147 -13 -197 -12 -221 -14 -312 -27 -44
-7 -93 -12 -109 -11 -16 0 -34 -3 -40 -8 -13 -10 -97 -23 -140 -22 -16 0 -34
-3 -40 -8 -10 -8 -56 -17 -116 -24 -14 -2 -32 -6 -40 -9 -14 -6 -55 -14 -105
-22 -11 -1 -27 -5 -35 -8 -29 -12 -75 -21 -92 -19 -9 1 -19 -3 -23 -9 -3 -5
-19 -10 -35 -10 -16 0 -31 -4 -34 -9 -3 -5 -15 -7 -26 -4 -12 3 -20 0 -20 -7
0 -6 -6 -10 -12 -7 -7 2 -25 -2 -39 -9 -15 -7 -29 -11 -32 -8 -3 3 -12 2 -19
-2 -7 -5 -22 -10 -32 -11 -11 -2 -25 -8 -31 -13 -7 -5 -15 -7 -18 -3 -4 3 -13
1 -21 -6 -8 -6 -18 -11 -22 -10 -8 2 -19 -1 -61 -18 -10 -4 -22 -8 -28 -9 -5
-1 -12 -3 -15 -4 -3 -1 -16 -4 -30 -5 -13 -1 -26 -7 -28 -13 -1 -5 -12 -8 -22
-5 -11 3 -20 0 -20 -6 0 -6 -8 -11 -18 -11 -10 0 -22 -4 -28 -9 -8 -9 -46 -20
-87 -25 -10 -1 -22 -7 -25 -13 -4 -6 -23 -13 -42 -17 -19 -3 -36 -10 -38 -15
-2 -6 -14 -11 -26 -11 -12 0 -30 -6 -41 -14 -11 -7 -23 -14 -27 -15 -5 0 -9
-1 -10 -2 -2 0 -12 -2 -23 -4 -11 -2 -21 -9 -23 -14 -2 -6 -9 -11 -15 -11 -7
0 -32 -10 -57 -22 -25 -12 -48 -20 -52 -20 -5 1 -8 -3 -8 -9 0 -6 -6 -9 -14
-6 -8 3 -17 3 -20 -1 -4 -3 -16 -7 -28 -9 -12 -2 -28 -12 -35 -23 -8 -11 -19
-18 -24 -15 -5 4 -9 2 -9 -3 0 -6 -16 -13 -35 -16 -19 -4 -35 -11 -35 -16 0
-4 -13 -11 -30 -15 -17 -4 -30 -11 -30 -16 0 -5 -3 -9 -7 -8 -16 2 -53 -14
-53 -22 0 -5 -3 -8 -7 -8 -5 1 -11 0 -15 -1 -5 -1 -12 -3 -16 -4 -5 0 -16 -9
-26 -18 -10 -10 -24 -18 -32 -18 -8 0 -14 -4 -14 -9 0 -5 -14 -12 -30 -16 -17
-4 -30 -11 -30 -16 0 -6 -9 -7 -20 -4 -11 4 -20 2 -20 -4 0 -6 -7 -11 -15 -11
-9 0 -18 -7 -21 -15 -4 -8 -12 -15 -20 -15 -8 0 -14 -5 -14 -11 0 -5 -4 -7
-10 -4 -5 3 -10 1 -10 -4 0 -6 -8 -11 -18 -11 -11 0 -29 -9 -42 -20 -13 -11
-29 -20 -37 -20 -7 0 -13 -4 -13 -8 0 -7 -78 -56 -90 -57 -3 0 -19 -10 -37
-23 -17 -12 -34 -22 -38 -22 -3 0 -21 -10 -38 -23 -32 -22 -38 -26 -115 -75
-24 -15 -53 -35 -64 -44 -12 -10 -25 -18 -30 -18 -5 0 -14 -5 -21 -10 -48 -41
-62 -50 -74 -50 -7 0 -16 -7 -19 -15 -4 -8 -14 -15 -23 -15 -9 0 -24 -8 -32
-17 -9 -10 -26 -25 -39 -33 -12 -8 -47 -34 -76 -57 -29 -24 -59 -43 -66 -43
-7 0 -19 -9 -26 -20 -7 -11 -21 -20 -32 -20 -11 0 -20 -7 -20 -15 0 -8 -12
-22 -27 -32 -16 -10 -34 -23 -41 -30 -7 -7 -18 -13 -23 -13 -5 0 -21 -11 -36
-25 -81 -71 -126 -105 -139 -105 -8 0 -14 -7 -14 -15 0 -8 -18 -26 -39 -39
-21 -14 -41 -29 -42 -33 -2 -5 -17 -19 -34 -31 -16 -13 -54 -44 -83 -70 -29
-26 -76 -68 -105 -93 -153 -136 -193 -173 -234 -219 l-45 -50 18 -28 c32 -49
92 -104 106 -96 7 4 37 30 66 58 29 28 57 53 62 54 6 2 10 9 11 15 0 7 30 37
67 67 37 30 82 71 102 91 19 20 49 46 66 57 18 12 48 38 67 57 33 33 57 45 57
27 0 -11 107 -122 118 -122 5 0 20 -9 33 -20 13 -11 29 -23 34 -28 14 -11 48
-25 57 -24 5 1 8 -3 8 -8 0 -6 6 -10 14 -10 8 0 22 -7 30 -16 9 -8 16 -11 16
-5 0 7 6 8 18 2 38 -20 103 -26 229 -20 73 4 139 11 145 17 7 6 18 11 23 12
29 3 55 13 55 21 0 4 15 11 34 15 19 3 37 12 40 20 3 8 15 14 26 14 11 0 20 7
20 15 0 9 10 19 23 24 12 5 39 28 60 52 20 24 46 54 57 67 11 12 20 25 20 27
0 2 13 23 29 47 16 24 35 63 42 88 7 25 16 47 19 50 3 3 14 41 23 85 35 165
15 339 -55 483 -10 18 -8 25 8 37 10 8 26 15 35 15 9 0 19 6 22 13 2 7 22 21
43 32 21 11 45 26 52 33 7 6 20 12 28 12 8 0 14 4 14 9 0 5 13 12 30 16 16 4
30 11 30 16 0 5 11 11 25 15 14 3 25 10 25 15 0 5 6 9 14 9 18 0 278 130 287
143 4 5 12 6 18 3 6 -4 11 -3 11 2 0 6 12 13 27 17 15 3 30 10 33 15 3 5 18
11 34 14 16 3 32 10 36 16 4 6 24 13 45 15 22 3 44 13 52 25 8 11 20 17 28 14
8 -4 15 -1 15 5 0 6 3 10 8 10 4 -1 9 0 12 1 3 1 14 3 25 5 11 2 21 8 23 13 2
6 12 8 22 5 11 -3 20 0 20 6 0 6 9 11 20 11 11 0 20 6 20 13 0 9 2 9 9 -1 7
-11 11 -11 23 2 9 8 28 17 44 20 15 3 31 11 35 17 4 6 11 9 17 5 5 -3 15 1 22
10 9 10 15 12 20 4 5 -8 12 -7 23 4 8 9 22 16 31 16 8 0 18 5 21 10 4 6 10 8
15 5 5 -3 17 -1 27 4 27 14 57 24 67 22 4 -1 14 4 22 10 8 6 14 9 14 5 0 -4
13 0 29 8 16 9 31 12 34 9 4 -3 13 0 21 6 8 7 20 10 25 7 5 -4 12 -2 16 4 10
16 25 1 25 -25 0 -13 5 -27 10 -30 6 -4 10 -12 8 -18 -7 -36 120 -228 177
-267 25 -17 45 -35 45 -40 0 -5 11 -12 25 -16 14 -3 25 -10 25 -16 0 -5 4 -7
9 -4 5 3 12 -1 15 -10 3 -8 10 -13 15 -9 5 3 12 1 16 -5 4 -6 10 -8 15 -5 5 3
11 1 15 -5 3 -5 17 -10 31 -10 13 0 24 -4 24 -9 0 -19 274 -18 286 1 3 4 16 8
30 8 13 0 24 4 24 9 0 4 20 14 45 21 25 7 45 16 45 21 0 4 10 11 21 14 38 12
175 159 199 214 13 28 27 51 31 51 4 0 10 18 14 40 4 22 10 40 14 40 4 0 7 8
8 18 1 9 7 51 13 92 6 41 10 93 8 116 -2 22 1 41 7 41 6 0 53 5 105 10 180 17
850 4 891 -18 9 -4 36 -8 60 -7 24 0 72 -3 105 -7 42 -5 63 -4 68 4 4 6 10 49
13 96 l6 85 -61 0 c-33 0 -64 4 -67 10 -3 5 -27 9 -53 9 -26 -1 -112 4 -192
10 -143 11 -687 20 -696 11z m-362 -237 c4 -41 -11 -176 -21 -183 -5 -3 -12
-20 -16 -37 -3 -18 -11 -33 -16 -33 -5 0 -9 -5 -9 -10 0 -6 -5 -16 -11 -23 -5
-7 -18 -26 -29 -43 -17 -29 -100 -94 -120 -94 -4 0 -10 -4 -12 -9 -1 -6 -16
-12 -32 -15 -16 -3 -33 -11 -38 -18 -6 -10 -10 -10 -16 -1 -6 10 -12 10 -28
-2 -23 -17 -134 -21 -134 -4 0 6 -9 9 -20 6 -12 -3 -33 1 -48 9 -15 8 -33 14
-39 14 -7 0 -13 4 -13 9 0 5 -8 12 -17 15 -54 19 -94 55 -139 122 -35 52 -57
100 -68 145 -5 24 -2 27 27 33 17 3 42 8 55 11 12 3 32 7 45 10 12 3 42 9 67
15 25 6 54 13 65 15 99 20 134 27 160 28 17 1 35 5 41 9 14 9 99 21 147 19 20
0 37 4 37 9 0 6 24 10 53 11 28 1 63 5 77 9 42 13 49 11 52 -17z m-2742 -1015
c0 -10 4 -18 9 -18 5 0 12 -15 15 -32 4 -18 9 -46 12 -63 8 -38 9 -162 2 -195
-3 -14 -9 -42 -13 -62 -4 -21 -11 -38 -15 -38 -4 0 -11 -16 -14 -35 -4 -19
-11 -35 -16 -35 -6 0 -10 -6 -10 -13 0 -31 -108 -148 -160 -173 -22 -10 -40
-22 -40 -26 0 -5 -7 -8 -15 -8 -8 0 -15 -6 -15 -12 0 -10 -2 -10 -9 0 -7 11
-11 11 -22 -1 -22 -21 -66 -30 -164 -31 -84 -2 -142 9 -156 27 -3 4 -10 7 -15
6 -15 -3 -74 22 -74 32 0 6 -13 15 -30 20 -16 6 -30 14 -30 18 0 12 -59 71
-70 71 -6 0 -10 7 -10 15 0 8 6 15 13 15 7 0 25 12 39 28 36 36 76 68 116 92
17 11 32 24 32 29 0 5 10 13 23 17 22 7 40 20 79 62 12 12 27 22 33 22 6 0 18
9 28 20 9 11 23 20 30 20 7 0 20 8 28 18 9 9 26 24 39 32 12 8 33 23 45 33 13
9 28 17 34 17 5 0 27 15 47 34 21 19 43 32 51 29 7 -3 13 2 13 11 0 9 6 16 14
16 7 0 19 7 26 15 7 8 21 15 32 15 10 0 21 7 24 15 4 8 10 13 14 10 5 -3 15 3
22 13 26 37 57 31 58 -10z"/>
<path d="M1220 2133 c-25 -15 -48 -30 -51 -35 -3 -5 -13 -6 -21 -3 -11 4 -18
-1 -23 -14 -3 -12 -13 -21 -21 -21 -8 0 -17 -7 -20 -15 -4 -9 -13 -13 -24 -10
-12 4 -19 -1 -23 -16 -3 -11 -10 -18 -16 -15 -5 4 -27 -10 -48 -29 -21 -19
-43 -35 -48 -35 -6 0 -18 -8 -27 -17 -23 -25 -40 -38 -68 -53 -13 -7 -29 -17
-34 -22 -6 -4 -22 -17 -35 -28 -13 -11 -32 -20 -43 -20 -10 0 -18 -7 -18 -15
0 -9 -12 -20 -27 -26 -15 -5 -33 -19 -40 -29 -8 -11 -20 -20 -28 -20 -8 0 -19
-9 -25 -20 -6 -11 -16 -20 -22 -20 -10 0 -41 -24 -111 -86 -15 -13 -34 -24
-42 -24 -8 0 -19 -8 -24 -18 -6 -11 -34 -37 -64 -60 -30 -22 -60 -46 -68 -54
-8 -7 -30 -25 -49 -39 -19 -14 -50 -41 -69 -58 l-35 -32 19 -32 c10 -18 28
-44 39 -58 12 -15 26 -34 32 -44 10 -18 11 -18 32 1 12 10 36 31 54 46 32 25
128 105 158 131 8 8 31 24 50 37 19 13 39 30 43 37 4 7 13 13 20 13 6 0 20 9
32 20 38 37 93 80 101 80 5 0 15 9 22 20 7 11 20 20 30 20 10 0 28 10 40 23
45 46 59 57 79 57 13 0 23 8 26 21 3 11 15 23 26 26 11 3 22 11 25 19 3 8 14
14 23 14 10 0 26 8 34 18 9 9 26 24 38 32 13 8 32 23 43 33 12 9 25 17 30 17
5 0 14 5 21 10 46 39 61 50 69 50 8 0 20 9 53 38 7 6 21 12 30 12 8 0 18 7 21
15 4 9 13 14 22 13 9 -2 23 9 31 24 14 24 13 30 -9 75 -14 26 -27 50 -31 53
-3 3 -8 13 -12 23 -8 22 -14 22 -67 -10z"/>
</g>
</svg>
